<mxfile host="Electron" agent="Mozilla/5.0 (Windows NT 10.0; Win64; x64) AppleWebKit/537.36 (KHTML, like Gecko) draw.io/28.1.2 Chrome/138.0.7204.243 Electron/37.4.0 Safari/537.36" version="28.1.2">
  <diagram name="Página-1" id="usfkOUHazBeQ5OSNFcY9">
    <mxGraphModel dx="1426" dy="841" grid="1" gridSize="10" guides="1" tooltips="1" connect="1" arrows="1" fold="1" page="1" pageScale="1" pageWidth="827" pageHeight="1169" math="0" shadow="0">
      <root>
        <mxCell id="0" />
        <mxCell id="1" parent="0" />
        <mxCell id="squNxqOrqGNqJVerCl5c-1" value="&lt;b&gt;&lt;font style=&quot;font-size: 18px;&quot;&gt;Funcionamento geral de uma API&lt;/font&gt;&lt;/b&gt;" style="text;html=1;align=center;verticalAlign=middle;resizable=0;points=[];autosize=1;strokeColor=none;fillColor=none;" vertex="1" parent="1">
          <mxGeometry x="258" width="310" height="40" as="geometry" />
        </mxCell>
        <mxCell id="squNxqOrqGNqJVerCl5c-2" value="&lt;b&gt;Elementos de entrada/input do Front-end&lt;/b&gt;" style="rounded=1;whiteSpace=wrap;html=1;fillColor=#fff2cc;strokeColor=#d6b656;" vertex="1" parent="1">
          <mxGeometry x="54.5" y="130" width="170" height="60" as="geometry" />
        </mxCell>
        <mxCell id="squNxqOrqGNqJVerCl5c-10" style="edgeStyle=orthogonalEdgeStyle;rounded=0;orthogonalLoop=1;jettySize=auto;html=1;exitX=1;exitY=0.5;exitDx=0;exitDy=0;entryX=0;entryY=0.5;entryDx=0;entryDy=0;" edge="1" parent="1" source="squNxqOrqGNqJVerCl5c-4" target="squNxqOrqGNqJVerCl5c-9">
          <mxGeometry relative="1" as="geometry" />
        </mxCell>
        <mxCell id="squNxqOrqGNqJVerCl5c-4" value="&lt;b&gt;Ativação&lt;/b&gt;&lt;br&gt;&lt;font style=&quot;font-size: 10px;&quot;&gt;como botão&lt;/font&gt;" style="rhombus;whiteSpace=wrap;html=1;fillColor=#dae8fc;strokeColor=#6c8ebf;" vertex="1" parent="1">
          <mxGeometry x="254.5" y="110" width="110" height="100" as="geometry" />
        </mxCell>
        <mxCell id="squNxqOrqGNqJVerCl5c-5" style="edgeStyle=orthogonalEdgeStyle;rounded=0;orthogonalLoop=1;jettySize=auto;html=1;entryX=0.045;entryY=0.493;entryDx=0;entryDy=0;entryPerimeter=0;" edge="1" parent="1" source="squNxqOrqGNqJVerCl5c-2" target="squNxqOrqGNqJVerCl5c-4">
          <mxGeometry relative="1" as="geometry" />
        </mxCell>
        <mxCell id="squNxqOrqGNqJVerCl5c-7" value="Chama uma Rota" style="text;html=1;align=center;verticalAlign=middle;resizable=0;points=[];autosize=1;strokeColor=none;fillColor=none;" vertex="1" parent="1">
          <mxGeometry x="344.5" y="120" width="120" height="30" as="geometry" />
        </mxCell>
        <mxCell id="squNxqOrqGNqJVerCl5c-16" style="edgeStyle=orthogonalEdgeStyle;rounded=0;orthogonalLoop=1;jettySize=auto;html=1;exitX=1;exitY=0.5;exitDx=0;exitDy=0;entryX=0;entryY=0.5;entryDx=0;entryDy=0;" edge="1" parent="1" source="squNxqOrqGNqJVerCl5c-9" target="squNxqOrqGNqJVerCl5c-14">
          <mxGeometry relative="1" as="geometry" />
        </mxCell>
        <mxCell id="squNxqOrqGNqJVerCl5c-9" value="&lt;b&gt;Rota&lt;br&gt;&lt;/b&gt;POST, GET&lt;br&gt;&lt;div&gt;PUT, DELET&lt;/div&gt;" style="shape=parallelogram;perimeter=parallelogramPerimeter;whiteSpace=wrap;html=1;fixedSize=1;fillColor=#f8cecc;strokeColor=#b85450;" vertex="1" parent="1">
          <mxGeometry x="457.5" y="130" width="120" height="60" as="geometry" />
        </mxCell>
        <mxCell id="squNxqOrqGNqJVerCl5c-12" value="API" style="text;html=1;align=center;verticalAlign=middle;resizable=0;points=[];autosize=1;strokeColor=none;fillColor=none;" vertex="1" parent="1">
          <mxGeometry x="504.5" y="90" width="40" height="30" as="geometry" />
        </mxCell>
        <mxCell id="squNxqOrqGNqJVerCl5c-13" value="Front-end" style="text;html=1;align=center;verticalAlign=middle;resizable=0;points=[];autosize=1;strokeColor=none;fillColor=none;" vertex="1" parent="1">
          <mxGeometry x="99.5" y="90" width="80" height="30" as="geometry" />
        </mxCell>
        <mxCell id="squNxqOrqGNqJVerCl5c-21" style="edgeStyle=orthogonalEdgeStyle;rounded=0;orthogonalLoop=1;jettySize=auto;html=1;exitX=0.5;exitY=1;exitDx=0;exitDy=0;entryX=1;entryY=0.5;entryDx=0;entryDy=0;" edge="1" parent="1" source="squNxqOrqGNqJVerCl5c-14" target="squNxqOrqGNqJVerCl5c-19">
          <mxGeometry relative="1" as="geometry" />
        </mxCell>
        <mxCell id="squNxqOrqGNqJVerCl5c-22" style="edgeStyle=orthogonalEdgeStyle;rounded=0;orthogonalLoop=1;jettySize=auto;html=1;exitX=0.5;exitY=1;exitDx=0;exitDy=0;entryX=1;entryY=0.5;entryDx=0;entryDy=0;" edge="1" parent="1" source="squNxqOrqGNqJVerCl5c-14" target="squNxqOrqGNqJVerCl5c-20">
          <mxGeometry relative="1" as="geometry" />
        </mxCell>
        <mxCell id="squNxqOrqGNqJVerCl5c-14" value="Função no back-end&lt;div&gt;para validar o que for necessário&lt;/div&gt;" style="shape=process;whiteSpace=wrap;html=1;backgroundOutline=1;fillColor=#e1d5e7;strokeColor=#9673a6;" vertex="1" parent="1">
          <mxGeometry x="614.5" y="127.5" width="157" height="65" as="geometry" />
        </mxCell>
        <mxCell id="squNxqOrqGNqJVerCl5c-17" value="e envia os dados" style="text;html=1;align=center;verticalAlign=middle;resizable=0;points=[];autosize=1;strokeColor=none;fillColor=none;" vertex="1" parent="1">
          <mxGeometry x="347.5" y="180" width="110" height="30" as="geometry" />
        </mxCell>
        <mxCell id="squNxqOrqGNqJVerCl5c-26" style="edgeStyle=orthogonalEdgeStyle;rounded=0;orthogonalLoop=1;jettySize=auto;html=1;exitX=0;exitY=0.5;exitDx=0;exitDy=0;entryX=1;entryY=0.5;entryDx=0;entryDy=0;" edge="1" parent="1" source="squNxqOrqGNqJVerCl5c-19" target="squNxqOrqGNqJVerCl5c-25">
          <mxGeometry relative="1" as="geometry">
            <Array as="points">
              <mxPoint x="470" y="275" />
              <mxPoint x="470" y="310" />
            </Array>
          </mxGeometry>
        </mxCell>
        <mxCell id="squNxqOrqGNqJVerCl5c-19" value="Resposta correta&lt;br&gt;código 200" style="whiteSpace=wrap;html=1;fillColor=#ffe6cc;strokeColor=#d79b00;" vertex="1" parent="1">
          <mxGeometry x="490" y="250" width="100" height="50" as="geometry" />
        </mxCell>
        <mxCell id="squNxqOrqGNqJVerCl5c-27" style="edgeStyle=orthogonalEdgeStyle;rounded=0;orthogonalLoop=1;jettySize=auto;html=1;exitX=0;exitY=0.5;exitDx=0;exitDy=0;entryX=1;entryY=0.5;entryDx=0;entryDy=0;" edge="1" parent="1" source="squNxqOrqGNqJVerCl5c-20" target="squNxqOrqGNqJVerCl5c-25">
          <mxGeometry relative="1" as="geometry">
            <Array as="points">
              <mxPoint x="470" y="355" />
              <mxPoint x="470" y="310" />
            </Array>
          </mxGeometry>
        </mxCell>
        <mxCell id="squNxqOrqGNqJVerCl5c-20" value="Resposta errada&lt;br&gt;código 401" style="whiteSpace=wrap;html=1;fillColor=#ffe6cc;strokeColor=#d79b00;" vertex="1" parent="1">
          <mxGeometry x="490" y="330" width="100" height="50" as="geometry" />
        </mxCell>
        <mxCell id="squNxqOrqGNqJVerCl5c-23" value="Resposta correta" style="text;html=1;align=center;verticalAlign=middle;resizable=0;points=[];autosize=1;strokeColor=none;fillColor=none;" vertex="1" parent="1">
          <mxGeometry x="590" y="250" width="110" height="30" as="geometry" />
        </mxCell>
        <mxCell id="squNxqOrqGNqJVerCl5c-24" value="Resposta errada" style="text;html=1;align=center;verticalAlign=middle;resizable=0;points=[];autosize=1;strokeColor=none;fillColor=none;" vertex="1" parent="1">
          <mxGeometry x="590" y="330" width="110" height="30" as="geometry" />
        </mxCell>
        <mxCell id="squNxqOrqGNqJVerCl5c-30" style="edgeStyle=orthogonalEdgeStyle;rounded=0;orthogonalLoop=1;jettySize=auto;html=1;exitX=0;exitY=0.5;exitDx=0;exitDy=0;entryX=1;entryY=0.5;entryDx=0;entryDy=0;" edge="1" parent="1" source="squNxqOrqGNqJVerCl5c-25" target="squNxqOrqGNqJVerCl5c-29">
          <mxGeometry relative="1" as="geometry" />
        </mxCell>
        <mxCell id="squNxqOrqGNqJVerCl5c-25" value="&lt;b&gt;Front-end&lt;/b&gt;&lt;div&gt;Recebe a resposta&lt;/div&gt;" style="rounded=1;whiteSpace=wrap;html=1;fillColor=#fff2cc;strokeColor=#d6b656;" vertex="1" parent="1">
          <mxGeometry x="240" y="280" width="120" height="60" as="geometry" />
        </mxCell>
        <mxCell id="squNxqOrqGNqJVerCl5c-28" value="Envia pro front-end&amp;nbsp;&lt;div&gt;a resposta&lt;/div&gt;" style="text;html=1;align=center;verticalAlign=middle;resizable=0;points=[];autosize=1;strokeColor=none;fillColor=none;" vertex="1" parent="1">
          <mxGeometry x="351" y="270" width="130" height="40" as="geometry" />
        </mxCell>
        <mxCell id="squNxqOrqGNqJVerCl5c-29" value="Redireciona para a resposta correspondente" style="rounded=1;whiteSpace=wrap;html=1;" vertex="1" parent="1">
          <mxGeometry x="70" y="280" width="120" height="60" as="geometry" />
        </mxCell>
      </root>
    </mxGraphModel>
  </diagram>
</mxfile>
